<?xml version="1.0" encoding="utf-8"?>
<svg xmlns="http://www.w3.org/2000/svg" xmlns:xlink="http://www.w3.org/1999/xlink" style="margin: auto; background: rgb(241, 242, 243); display: block; z-index: 1; position: relative; shape-rendering: auto;" width="684" height="741" preserveAspectRatio="xMidYMid" viewBox="0 0 684 741">
<g transform="translate(342,370.5) scale(-1,1) translate(-342,-370.5)"><g transform="translate(551.1577949385244,295.1985603294717) scale(100)" opacity="0.5700000000000001">
  <path d="M2.2230000000000003 0 C2.2230000000000003 0.11114999999999987 2.2019699676284743 0.3246715019250342 2.1802856783363818 0.43368578584185313 S2.0963194642799703 0.7480160601089653 2.053784200772591 0.8507052701475947 S1.910108579548687 1.142614780595148 1.8483569481485582 1.2350326280025758 S1.6504932933065801 1.4933034558488107 1.5718983745776955 1.5718983745776953 S1.3274504754100038 1.7866053167484295 1.235032628002576 1.8483569481485582 S0.9533944801862242 2.011248937265211 0.8507052701475948 2.053784200772591 S0.5427000697586724 2.158601389044289 0.43368578584185336 2.1802856783363818 S0.11115000000000001 2.2230000000000003 1.3611949172522832e-16 2.2230000000000003 S-0.3246715019250341 2.2019699676284743 -0.433685785841853 2.1802856783363818 S-0.7480160601089652 2.0963194642799703 -0.8507052701475946 2.053784200772591 S-1.1426147805951476 1.9101085795486874 -1.2350326280025754 1.8483569481485587 S-1.4933034558488107 1.6504932933065801 -1.5718983745776953 1.5718983745776955 S-1.78660531674843 1.3274504754100036 -1.8483569481485587 1.2350326280025758 S-2.011248937265211 0.9533944801862244 -2.053784200772591 0.850705270147595 S-2.158601389044289 0.5427000697586729 -2.1802856783363818 0.43368578584185397 S-2.2230000000000003 0.11115000000000015 -2.2230000000000003 2.7223898345045664e-16 S-2.2019699676284743 -0.32467150192503447 -2.1802856783363818 -0.4336857858418534 S-2.0963194642799703 -0.748016060108965 -2.053784200772591 -0.8507052701475945 S-1.9101085795486876 -1.1426147805951476 -1.8483569481485589 -1.2350326280025754 S-1.6504932933065803 -1.4933034558488107 -1.5718983745776958 -1.5718983745776953 S-1.3274504754100036 -1.7866053167484295 -1.2350326280025758 -1.8483569481485582 S-0.9533944801862253 -2.0112489372652105 -0.8507052701475959 -2.0537842007725904 S-0.542700069758673 -2.1586013890442888 -0.4336857858418541 -2.1802856783363813 S-0.11115000000000028 -2.2230000000000003 -4.0835847517568497e-16 -2.2230000000000003 S0.32467150192503436 -2.2019699676284743 0.4336857858418533 -2.1802856783363818 S0.7480160601089658 -2.0963194642799703 0.8507052701475952 -2.0537842007725904 S1.1426147805951472 -1.9101085795486876 1.235032628002575 -1.8483569481485589 S1.4933034558488103 -1.6504932933065803 1.5718983745776949 -1.5718983745776958 S1.7866053167484295 -1.3274504754100036 1.8483569481485582 -1.2350326280025758 S2.0112489372652105 -0.9533944801862255 2.0537842007725904 -0.8507052701475961 S2.1586013890442888 -0.5427000697586731 2.1802856783363813 -0.4336857858418542 S2.2230000000000003 -0.11115000000000042 2.2230000000000003 -5.444779669009133e-16" fill="#ffe530" stroke-width="0">
    <animateTransform attributeName="transform" type="rotate" dur="16.666666666666664s" repeatCount="indefinite" values="0;22.5"></animateTransform>
  </path>
</g><g transform="translate(592.9893539262292,280.1382723953661) scale(100)" opacity="0.5700000000000001">
  <path d="M2.6676000000000006 0 C2.6676000000000006 0.13337999999999986 2.642363961154169 0.3896058023100411 2.616342814003658 0.5204229430102238 S2.5155833571359647 0.8976192721307584 2.464541040927109 1.0208463241771137 S2.2921302954584246 1.3711377367141777 2.21802833777827 1.482039153603091 S1.9805919519678963 1.791964147018573 1.8862780494932347 1.8862780494932345 S1.5929405704920048 2.1439263800981156 1.4820391536030915 2.21802833777827 S1.1440733762234692 2.413498724718253 1.020846324177114 2.464541040927109 S0.6512400837104069 2.5903216668531472 0.5204229430102241 2.616342814003658 S0.13338000000000003 2.6676000000000006 1.63343390070274e-16 2.6676000000000006 S-0.389605802310041 2.642363961154169 -0.5204229430102237 2.616342814003658 S-0.8976192721307582 2.5155833571359647 -1.0208463241771135 2.464541040927109 S-1.3711377367141773 2.292130295458425 -1.4820391536030906 2.2180283377782706 S-1.791964147018573 1.9805919519678963 -1.8862780494932345 1.8862780494932347 S-2.143926380098116 1.5929405704920043 -2.2180283377782706 1.482039153603091 S-2.413498724718253 1.1440733762234692 -2.464541040927109 1.020846324177114 S-2.590321666853147 0.6512400837104075 -2.616342814003658 0.5204229430102248 S-2.6676000000000006 0.1333800000000002 -2.6676000000000006 3.26686780140548e-16 S-2.642363961154169 -0.38960580231004144 -2.616342814003658 -0.5204229430102242 S-2.515583357135965 -0.8976192721307582 -2.4645410409271093 -1.0208463241771135 S-2.292130295458425 -1.3711377367141773 -2.2180283377782706 -1.4820391536030906 S-1.9805919519678965 -1.791964147018573 -1.886278049493235 -1.8862780494932345 S-1.5929405704920043 -2.1439263800981156 -1.482039153603091 -2.21802833777827 S-1.1440733762234705 -2.4134987247182527 -1.0208463241771153 -2.4645410409271085 S-0.6512400837104076 -2.5903216668531464 -0.520422943010225 -2.6163428140036578 S-0.13338000000000036 -2.6676000000000006 -4.90030170210822e-16 -2.6676000000000006 S0.3896058023100412 -2.642363961154169 0.520422943010224 -2.616342814003658 S0.8976192721307591 -2.5155833571359647 1.0208463241771144 -2.464541040927109 S1.3711377367141768 -2.292130295458425 1.4820391536030901 -2.2180283377782706 S1.7919641470185725 -1.9805919519678965 1.886278049493234 -1.886278049493235 S2.1439263800981156 -1.5929405704920043 2.21802833777827 -1.482039153603091 S2.4134987247182527 -1.1440733762234705 2.4645410409271085 -1.0208463241771153 S2.5903216668531464 -0.6512400837104078 2.6163428140036578 -0.5204229430102251 S2.6676000000000006 -0.13338000000000053 2.6676000000000006 -6.53373560281096e-16" fill="#ffe530" stroke-width="0">
    <animateTransform attributeName="transform" type="rotate" dur="8.333333333333332s" repeatCount="indefinite" values="0;22.5"></animateTransform>
  </path>
</g></g>
</svg>