<?xml version="1.0" encoding="utf-8"?><svg xmlns="http://www.w3.org/2000/svg" xmlns:xlink="http://www.w3.org/1999/xlink" width="2098" height="1149" preserveAspectRatio="xMidYMid" viewBox="0 0 2098 1149" style="z-index:1;margin-right:-3px;display:block;background-repeat-y:initial;background-repeat-x:initial;background-color:rgb(241, 242, 243);animation-play-state:paused" ><g transform="translate(1049,574.5) scale(1,-1) translate(-1049,-574.5)" style="transform:matrix(1, 0, 0, -1, 0, 1149);animation-play-state:paused" ><g transform="translate(1297.6617823946299,381.6181502154084) scale(100)" opacity="0.9" style="transform:matrix(100, 0, 0, 100, 1297.66, 381.618);opacity:0.9;animation-play-state:paused" ><path d="M3.147 0 C3.147 0.5979299999999997 3.0243469457096284 1.0556774303151704 2.7253819457096284 1.5734999999999997 S2.0913225696848294 2.426416945709628 1.5735000000000003 2.725381945709628 S0.59793 3.147 1.9269817384583601e-16 3.147 S-1.05567743031517 3.0243469457096284 -1.5734999999999992 2.7253819457096284 S-2.4264169457096276 2.09132256968483 -2.7253819457096276 1.573500000000001 S-3.147 0.5979300000000001 -3.147 3.8539634769167203e-16 S-3.0243469457096284 -1.0556774303151697 -2.725381945709629 -1.573499999999999 S-2.0913225696848303 -2.4264169457096276 -1.5735000000000012 -2.7253819457096276 S-0.5979300000000003 -3.147 -5.78094521537508e-16 -3.147 S1.0556774303151686 -3.024346945709629 1.573499999999998 -2.7253819457096293 S2.4264169457096276 -2.0913225696848303 2.7253819457096276 -1.5735000000000012 S3.147 -0.5979300000000005 3.147 -7.707926953833441e-16" fill="#4487ff" stroke-width="0" transform="matrix(1,0,0,1,0,0)" style="transform:matrix(1, 0, 0, 1, 0, 0);animation-play-state:paused" ></path></g>
<g transform="translate(1347.3941388735557,343.04178025849) scale(100)" opacity="0.9" style="transform:matrix(100, 0, 0, 100, 1347.39, 343.042);opacity:0.9;animation-play-state:paused" ><path d="M3.7763999999999998 0 C3.7763999999999998 0.7175159999999997 3.629216334851554 1.2668129163782047 3.270458334851554 1.8881999999999997 S2.5095870836217955 2.9117003348515538 1.8882000000000003 3.2704583348515537 S0.7175159999999999 3.7763999999999998 2.312378086150032e-16 3.7763999999999998 S-1.2668129163782038 3.629216334851554 -1.888199999999999 3.270458334851554 S-2.9117003348515533 2.5095870836217964 -3.2704583348515532 1.8882000000000012 S-3.7763999999999998 0.7175160000000002 -3.7763999999999998 4.624756172300064e-16 S-3.629216334851554 -1.2668129163782036 -3.2704583348515546 -1.8881999999999988 S-2.5095870836217964 -2.911700334851553 -1.8882000000000017 -3.2704583348515532 S-0.7175160000000004 -3.7763999999999998 -6.937134258450096e-16 -3.7763999999999998 S1.266812916378202 -3.629216334851555 1.8881999999999974 -3.2704583348515555 S2.9117003348515524 -2.5095870836217964 3.270458334851553 -1.8882000000000017 S3.7763999999999998 -0.7175160000000006 3.7763999999999998 -9.249512344600128e-16" fill="#4487ff" stroke-width="0" transform="matrix(1,0,0,1,0,0)" style="transform:matrix(1, 0, 0, 1, 0, 0);animation-play-state:paused" ></path></g>
<g transform="translate(1466.751794422978,250.45849236188604) scale(100)" opacity="0.9" style="transform:matrix(100, 0, 0, 100, 1466.75, 250.458);opacity:0.9;animation-play-state:paused" ><path d="M5.286959999999999 0 C5.286959999999999 1.0045223999999995 5.080902868792174 1.7735380829294858 4.578641668792175 2.643479999999999 S3.513421917070513 4.076380468792175 2.64348 4.578641668792175 S1.0045223999999997 5.286959999999999 3.2373293206100443e-16 5.286959999999999 S-1.773538082929485 5.080902868792174 -2.643479999999998 4.578641668792175 S-4.076380468792173 3.513421917070514 -4.578641668792174 2.643480000000001 S-5.286959999999999 1.0045224000000001 -5.286959999999999 6.474658641220089e-16 S-5.080902868792175 -1.773538082929485 -4.578641668792176 -2.643479999999998 S-3.5134219170705143 -4.076380468792173 -2.6434800000000016 -4.578641668792174 S-1.0045224000000004 -5.286959999999999 -9.711987961830132e-16 -5.286959999999999 S1.7735380829294825 -5.080902868792176 2.643479999999996 -4.5786416687921765 S4.0763804687921725 -3.5134219170705143 4.578641668792173 -2.6434800000000016 S5.286959999999999 -1.0045224000000008 5.286959999999999 -1.2949317282440177e-15" fill="#4487ff" stroke-width="0" transform="matrix(1,0,0,1,0,0)" style="transform:matrix(1, 0, 0, 1, 0, 0);animation-play-state:paused" ></path></g>
<g transform="translate(1717.4028710767648,56.033587779017694) scale(100)" opacity="0.9" style="transform:matrix(100, 0, 0, 100, 1717.4, 56.0336);opacity:0.9;animation-play-state:paused" ><path d="M8.459135999999999 0 C8.459135999999999 1.6072358399999993 8.12944459006748 2.837660932687178 7.325826670067481 4.229567999999999 S5.621475067312821 6.52220875006748 4.229568 7.32582667006748 S1.6072358399999997 8.459135999999999 5.179726912976072e-16 8.459135999999999 S-2.837660932687177 8.12944459006748 -4.229567999999998 7.325826670067481 S-6.522208750067479 5.621475067312823 -7.325826670067479 4.229568000000002 S-8.459135999999999 1.6072358400000004 -8.459135999999999 1.0359453825952144e-15 S-8.12944459006748 -2.837660932687176 -7.325826670067482 -4.229567999999997 S-5.621475067312824 -6.522208750067478 -4.229568000000003 -7.325826670067479 S-1.6072358400000009 -8.459135999999999 -1.5539180738928215e-15 -8.459135999999999 S2.8376609326871725 -8.129444590067482 4.229567999999994 -7.3258266700674834 S6.5222087500674775 -5.621475067312824 7.325826670067478 -4.229568000000003 S8.459135999999999 -1.6072358400000013 8.459135999999999 -2.0718907651904287e-15" fill="#4487ff" stroke-width="0" transform="matrix(1,0,0,1,0,0)" style="transform:matrix(1, 0, 0, 1, 0, 0);animation-play-state:paused" ></path></g></g></svg>