<?xml version="1.0" encoding="utf-8"?>
<svg xmlns="http://www.w3.org/2000/svg" xmlns:xlink="http://www.w3.org/1999/xlink" style="margin: auto; background: rgb(241, 242, 243); display: block; z-index: 1; position: relative; shape-rendering: auto;" width="1975" height="2000" preserveAspectRatio="xMidYMid" viewBox="0 0 1975 2000">
<g transform="translate(987.5,1000) scale(1,1) translate(-987.5,-1000)"><g transform="translate(1787.5,1000) scale(100)" opacity="0.9">
  <path d="M8 0 C8 2.3200000000000003 7.297341981845171 4.0163665171395895 5.656854249492381 5.65685424949238 S2.3200000000000007 8 4.898587196589413e-16 8 S-4.0163665171395895 7.297341981845171 -5.65685424949238 5.656854249492381 S-8 2.320000000000001 -8 9.797174393178826e-16 S-7.297341981845172 -4.016366517139589 -5.6568542494923815 -5.65685424949238 S-2.3200000000000016 -8 -1.4695761589768238e-15 -8 S4.016366517139588 -7.297341981845172 5.656854249492379 -5.6568542494923815 S7.999999999999999 -2.320000000000002 8 -1.959434878635765e-15" fill="#4487ff" stroke-width="0">
    <animateTransform attributeName="transform" type="rotate" dur="100s" repeatCount="indefinite" values="0;90"></animateTransform>
  </path>
</g><g transform="translate(1947.5,1000) scale(100)" opacity="0.9">
  <path d="M9.6 0 C9.6 2.7840000000000003 8.756810378214205 4.819639820567507 6.788225099390856 6.788225099390855 S2.7840000000000007 9.6 5.878304635907295e-16 9.6 S-4.819639820567507 8.756810378214205 -6.788225099390855 6.788225099390856 S-9.6 2.7840000000000016 -9.6 1.175660927181459e-15 S-8.756810378214206 -4.819639820567506 -6.788225099390858 -6.788225099390855 S-2.784000000000002 -9.6 -1.7634913907721885e-15 -9.6 S4.819639820567506 -8.756810378214206 6.788225099390854 -6.788225099390858 S9.6 -2.7840000000000025 9.6 -2.351321854362918e-15" fill="#4487ff" stroke-width="0">
    <animateTransform attributeName="transform" type="rotate" dur="50s" repeatCount="indefinite" values="0;90"></animateTransform>
  </path>
</g></g>
</svg>