<?xml version="1.0" encoding="utf-8"?><svg xmlns="http://www.w3.org/2000/svg" xmlns:xlink="http://www.w3.org/1999/xlink" width="1644" height="2000" preserveAspectRatio="xMidYMid" viewBox="0 0 1644 2000" style="z-index:1;margin-right:-3px;display:block;background-repeat-y:initial;background-repeat-x:initial;background-color:rgb(241, 242, 243);animation-play-state:paused" ><g transform="translate(822,1000) scale(1,1) translate(-822,-1000)" style="transform:matrix(1, 0, 0, 1, 0, 0);animation-play-state:paused" ><g transform="translate(1722,1000) scale(100)" opacity="0.9" style="transform:matrix(100, 0, 0, 100, 1722, 1000);opacity:0.9;animation-play-state:paused" ><path d="M9.000000000000002 0 C9.000000000000002 2.6100000000000008 8.209509729575819 4.518412331782039 6.363961030678929 6.3639610306789285 S2.610000000000001 9.000000000000002 5.510910596163091e-16 9.000000000000002 S-4.518412331782039 8.209509729575819 -6.3639610306789285 6.363961030678929 S-9.000000000000002 2.6100000000000017 -9.000000000000002 1.1021821192326181e-15 S-8.209509729575819 -4.518412331782038 -6.36396103067893 -6.3639610306789285 S-2.6100000000000025 -9.000000000000002 -1.653273178848927e-15 -9.000000000000002 S4.518412331782038 -8.209509729575819 6.363961030678928 -6.36396103067893 S9.000000000000002 -2.610000000000003 9.000000000000002 -2.2043642384652362e-15" fill="#4487ff" stroke-width="0" transform="matrix(1,0,0,1,0,0)" style="transform:matrix(1, 0, 0, 1, 0, 0);animation-play-state:paused" ></path></g>
<g transform="translate(1902,1000) scale(100)" opacity="0.9" style="transform:matrix(100, 0, 0, 100, 1902, 1000);opacity:0.9;animation-play-state:paused" ><path d="M10.8 0 C10.8 3.1320000000000006 9.851411675490981 5.4220947981384455 7.636753236814714 7.636753236814713 S3.132000000000001 10.8 6.613092715395707e-16 10.8 S-5.4220947981384455 9.851411675490981 -7.636753236814713 7.636753236814714 S-10.8 3.132000000000002 -10.8 1.3226185430791415e-15 S-9.851411675490983 -5.4220947981384455 -7.636753236814715 -7.636753236814713 S-3.1320000000000023 -10.8 -1.9839278146187122e-15 -10.8 S5.422094798138444 -9.851411675490983 7.6367532368147115 -7.636753236814715 S10.8 -3.1320000000000032 10.8 -2.645237086158283e-15" fill="#4487ff" stroke-width="0" transform="matrix(1,0,0,1,0,0)" style="transform:matrix(1, 0, 0, 1, 0, 0);animation-play-state:paused" ></path></g></g></svg>