<?xml version="1.0" encoding="utf-8"?><svg xmlns="http://www.w3.org/2000/svg" xmlns:xlink="http://www.w3.org/1999/xlink" width="1647" height="1024" preserveAspectRatio="xMidYMid" viewBox="0 0 1647 1024" style="z-index:1;margin-right:-3px;display:block;background-repeat-y:initial;background-repeat-x:initial;background-color:rgb(241, 242, 243);animation-play-state:paused" ><g transform="translate(823.5,512) scale(1,1) translate(-823.5,-512)" style="transform:matrix(1, 0, 0, 1, 0, 0);animation-play-state:paused" ><g transform="translate(1235.25,512) scale(100)" opacity="0.9" style="transform:matrix(100, 0, 0, 100, 1235.25, 512);opacity:0.9;animation-play-state:paused" ><path d="M4.1175 0 C4.1175 1.111725 3.697620457850224 2.125403885220994 2.9115121715356094 2.911512171535609 S1.1117250000000003 4.1175 2.5212415977446135e-16 4.1175 S-2.125403885220994 3.697620457850224 -2.911512171535609 2.9115121715356094 S-4.1175 1.1117250000000005 -4.1175 5.042483195489227e-16 S-3.697620457850224 -2.125403885220994 -2.91151217153561 -2.911512171535609 S-1.1117250000000007 -4.1175 -7.563724793233839e-16 -4.1175 S2.1254038852209938 -3.697620457850224 2.9115121715356085 -2.91151217153561 S4.1175 -1.1117250000000012 4.1175 -1.0084966390978454e-15" fill="#4487ff" stroke-width="0" transform="matrix(1,0,0,1,0,0)" style="transform:matrix(1, 0, 0, 1, 0, 0);animation-play-state:paused" ></path></g>
<g transform="translate(1317.6,512) scale(100)" opacity="0.9" style="transform:matrix(100, 0, 0, 100, 1317.6, 512);opacity:0.9;animation-play-state:paused" ><path d="M4.941 0 C4.941 1.33407 4.437144549420269 2.5504846622651933 3.4938146058427315 3.493814605842731 S1.3340700000000003 4.941 3.025489917293536e-16 4.941 S-2.5504846622651933 4.437144549420269 -3.493814605842731 3.4938146058427315 S-4.941 1.3340700000000008 -4.941 6.050979834587072e-16 S-4.437144549420269 -2.5504846622651933 -3.493814605842732 -3.493814605842731 S-1.334070000000001 -4.941 -9.076469751880607e-16 -4.941 S2.5504846622651924 -4.437144549420269 3.49381460584273 -3.493814605842732 S4.941 -1.3340700000000012 4.941 -1.2101959669174143e-15" fill="#4487ff" stroke-width="0" transform="matrix(1,0,0,1,0,0)" style="transform:matrix(1, 0, 0, 1, 0, 0);animation-play-state:paused" ></path></g></g></svg>